<?xml version="1.0" encoding="utf-8"?>
<svg version="1.1" id="Layer_1" x="0px" y="0px" width="100%" viewBox="0 0 750 751" enable-background="new 0 0 750 751" xmlns="http://www.w3.org/2000/svg">
  <path fill="#D9D9D9" opacity="1.000000" stroke="none" d=" M700.029785,448.044342 C691.835815,486.371979 677.232727,521.717285 656.587830,554.431274 C641.562195,578.240845 623.769653,599.996521 603.122314,619.209229 C588.043274,633.240540 571.775452,645.765076 554.424805,657.015137 C531.241760,672.046936 506.549561,683.782410 480.481293,692.520081 C461.628632,698.839233 442.349213,703.967102 422.458801,705.969177 C406.647003,707.560791 390.790497,709.719849 374.948334,709.766663 C349.554230,709.841675 324.385437,706.498840 299.601196,700.725403 C271.118164,694.090271 243.969604,683.880859 218.196152,670.067505 C196.309464,658.337341 176.076202,644.205566 157.356628,627.884583 C138.994003,611.874878 122.415031,594.216064 108.035599,574.545349 C93.805008,555.078247 81.499046,534.543213 71.773308,512.358582 C62.063923,490.211273 54.289162,467.514374 49.607559,443.850739 C47.043053,430.888092 45.128372,417.708252 44.188221,404.535889 C43.077259,388.970337 42.547035,373.272339 43.235291,357.696716 C43.839317,344.027161 45.956467,330.356995 48.314129,316.845673 C54.272331,282.700409 65.786064,250.376770 82.146172,219.850143 C93.390701,198.868790 106.786011,179.301422 122.273666,161.167725 C139.287506,141.247101 158.320038,123.510269 179.456406,108.082512 C201.111786,92.275932 224.155762,78.674683 249.267029,69.251747 C267.239563,62.507599 285.691315,56.798420 304.293945,52.058670 C317.205750,48.768875 330.695984,47.530533 344.004883,46.085384 C355.202301,44.869514 366.525604,43.946388 377.767517,44.172024 C409.203003,44.802959 440.156891,48.852440 470.378815,58.135220 C504.650940,68.662064 536.622314,83.718048 565.957397,104.363747 C590.279785,121.481583 611.846558,141.515549 630.977356,164.307312 C648.707703,185.430679 663.429932,208.482376 675.384521,233.206543 C687.930908,259.154602 696.907227,286.440216 701.878235,314.881714 C703.839844,326.105103 704.947571,337.502930 705.926514,348.865906 C706.936401,360.587891 708.324036,372.413391 707.752808,384.105957 C706.711792,405.414703 705.371704,426.786591 700.029785,448.044342 M198.015549,566.494019 C200.513763,568.677490 202.991043,570.885498 205.513443,573.040649 C228.308563,592.517517 253.642929,607.653503 281.664825,618.454102 C311.434875,629.928467 342.305511,635.189819 374.046265,635.906677 C380.165192,636.044861 386.313324,635.465271 392.429932,634.986206 C400.354553,634.365540 408.349945,634.022339 416.157440,632.658508 C433.818146,629.573425 451.094208,624.994324 467.916412,618.608643 C499.713531,606.538696 527.980347,588.885376 552.737427,565.661926 C567.070801,552.216431 579.818115,537.397522 590.784241,520.988037 C601.819031,504.475891 610.987427,487.061340 617.943054,468.513977 C624.064758,452.190338 628.858826,435.490173 631.238281,418.125885 C633.670532,400.376312 635.422058,382.734009 634.330566,364.677948 C633.243530,346.695374 630.481445,329.195007 626.269104,311.735016 C621.484619,291.903351 613.907471,273.216156 604.444641,255.311447 C595.670959,238.710693 585.162231,223.202179 572.725769,209.008102 C555.202209,189.008011 535.781372,171.144470 512.861877,157.639740 C499.187012,149.582169 484.807709,142.535095 470.220978,136.250305 C443.445404,124.713928 415.100067,119.433075 386.064728,118.141251 C376.802765,117.729179 367.483917,118.755196 358.187500,118.926582 C335.065857,119.352859 312.897461,124.642471 291.090485,131.843246 C258.310577,142.667343 229.027771,159.795288 203.249283,182.520630 C177.973907,204.802475 157.325470,230.990356 142.386276,261.354858 C130.830505,284.842438 122.611656,309.392090 118.756905,335.440857 C115.978569,354.215637 114.524139,372.868561 115.776329,391.888184 C117.090836,411.854401 120.325272,431.334747 125.916718,450.500854 C133.900024,477.865601 146.026611,503.335999 162.977524,526.129395 C173.439758,540.197632 185.931625,552.756531 198.015549,566.494019 z"/>
  <path fill="#B6B6B6" opacity="1.000000" stroke="none" d=" M197.763916,566.243530 C185.931625,552.756531 173.439758,540.197632 162.977524,526.129395 C146.026611,503.335999 133.900024,477.865601 125.916718,450.500854 C120.325272,431.334747 117.090836,411.854401 115.776329,391.888184 C114.524139,372.868561 115.978569,354.215637 118.756905,335.440857 C122.611656,309.392090 130.830505,284.842438 142.386276,261.354858 C157.325470,230.990356 177.973907,204.802475 203.249283,182.520630 C229.027771,159.795288 258.310577,142.667343 291.090485,131.843246 C312.897461,124.642471 335.065857,119.352859 358.187500,118.926582 C367.483917,118.755196 376.802765,117.729179 386.064728,118.141251 C415.100067,119.433075 443.445404,124.713928 470.220978,136.250305 C484.807709,142.535095 499.187012,149.582169 512.861877,157.639740 C535.781372,171.144470 555.202209,189.008011 572.725769,209.008102 C585.162231,223.202179 595.670959,238.710693 604.444641,255.311447 C613.907471,273.216156 621.484619,291.903351 626.269104,311.735016 C630.481445,329.195007 633.243530,346.695374 634.330566,364.677948 C635.422058,382.734009 633.670532,400.376312 631.238281,418.125885 C628.858826,435.490173 624.064758,452.190338 617.943054,468.513977 C610.987427,487.061340 601.819031,504.475891 590.784241,520.988037 C579.818115,537.397522 567.070801,552.216431 552.737427,565.661926 C527.980347,588.885376 499.713531,606.538696 467.916412,618.608643 C451.094208,624.994324 433.818146,629.573425 416.157440,632.658508 C408.349945,634.022339 400.354553,634.365540 392.429932,634.986206 C386.313324,635.465271 380.165192,636.044861 374.046265,635.906677 C342.305511,635.189819 311.434875,629.928467 281.664825,618.454102 C253.642929,607.653503 228.308563,592.517517 205.513443,573.040649 C202.991043,570.885498 200.513763,568.677490 197.763916,566.243530 M189.218811,341.809570 C188.148987,350.517120 186.128082,359.235718 186.228775,367.929718 C186.385925,381.495667 187.192474,395.159088 189.132629,408.577515 C193.118195,436.142548 203.824905,461.219482 219.617142,484.142365 C229.667038,498.730072 241.538284,511.585236 255.224258,522.869568 C268.648224,533.937805 283.103577,543.281738 299.092499,550.087646 C318.266327,558.249268 338.045868,563.874084 359.066437,565.259033 C377.063934,566.444824 394.781982,565.701965 412.489197,562.379211 C440.653564,557.094116 465.981323,545.302124 488.772827,528.339355 C507.986938,514.039124 523.952942,496.474243 536.487061,475.908783 C552.604309,449.464355 562.208984,420.826263 563.755066,389.941406 C564.473511,375.588257 563.309204,361.048492 561.889893,346.702972 C559.888733,326.475647 552.847656,307.539581 543.593933,289.628998 C530.857361,264.977295 513.492188,243.968353 491.460907,226.855286 C458.467743,201.227463 421.047058,188.092957 379.436493,187.133789 C368.372864,186.878754 357.175720,187.659897 346.205109,189.167587 C326.487213,191.877380 307.623749,198.007217 289.973816,207.168396 C258.041229,223.742981 232.425491,247.170853 213.732712,278.206970 C201.934982,297.795105 193.847946,318.615143 189.218811,341.809570 z"/>
  <path fill="#888888" opacity="1.000000" stroke="none" d=" M189.359833,341.394531 C193.847946,318.615143 201.934982,297.795105 213.732712,278.206970 C232.425491,247.170853 258.041229,223.742981 289.973816,207.168396 C307.623749,198.007217 326.487213,191.877380 346.205109,189.167587 C357.175720,187.659897 368.372864,186.878754 379.436493,187.133789 C421.047058,188.092957 458.467743,201.227463 491.460907,226.855286 C513.492188,243.968353 530.857361,264.977295 543.593933,289.628998 C552.847656,307.539581 559.888733,326.475647 561.889893,346.702972 C563.309204,361.048492 564.473511,375.588257 563.755066,389.941406 C562.208984,420.826263 552.604309,449.464355 536.487061,475.908783 C523.952942,496.474243 507.986938,514.039124 488.772827,528.339355 C465.981323,545.302124 440.653564,557.094116 412.489197,562.379211 C394.781982,565.701965 377.063934,566.444824 359.066437,565.259033 C338.045868,563.874084 318.266327,558.249268 299.092499,550.087646 C283.103577,543.281738 268.648224,533.937805 255.224258,522.869568 C241.538284,511.585236 229.667038,498.730072 219.617142,484.142365 C203.824905,461.219482 193.118195,436.142548 189.132629,408.577515 C187.192474,395.159088 186.385925,381.495667 186.228775,367.929718 C186.128082,359.235718 188.148987,350.517120 189.359833,341.394531 M452.684998,272.809814 C444.988220,268.218933 437.626312,262.898834 429.529022,259.180084 C408.989319,249.747040 387.484253,245.666992 364.648773,247.795715 C348.566559,249.294876 333.111938,252.556152 318.796173,259.783051 C280.930054,278.898712 256.954834,309.045258 247.492630,350.689209 C243.507263,368.229187 243.704422,385.849609 247.400604,403.017914 C253.696182,432.260315 268.136017,457.221191 291.693756,476.296661 C319.289673,498.641907 350.461365,509.602478 386.300018,506.105042 C410.180145,503.774597 431.991028,496.114380 451.287994,481.844574 C485.573456,456.491028 503.224884,422.219269 504.932922,379.753540 C505.440704,367.129150 503.597107,354.655273 500.307526,342.450256 C492.626831,313.953430 476.475616,291.167297 452.684998,272.809814 z"/>
  <path fill="#4C4C4C" opacity="1.000000" stroke="none" d=" M452.995728,272.984253 C476.475616,291.167297 492.626831,313.953430 500.307526,342.450256 C503.597107,354.655273 505.440704,367.129150 504.932922,379.753540 C503.224884,422.219269 485.573456,456.491028 451.287994,481.844574 C431.991028,496.114380 410.180145,503.774597 386.300018,506.105042 C350.461365,509.602478 319.289673,498.641907 291.693756,476.296661 C268.136017,457.221191 253.696182,432.260315 247.400604,403.017914 C243.704422,385.849609 243.507263,368.229187 247.492630,350.689209 C256.954834,309.045258 280.930054,278.898712 318.796173,259.783051 C333.111938,252.556152 348.566559,249.294876 364.648773,247.795715 C387.484253,245.666992 408.989319,249.747040 429.529022,259.180084 C437.626312,262.898834 444.988220,268.218933 452.995728,272.984253 M416.316254,435.856354 C423.081512,428.831146 430.701904,422.433289 436.419739,414.639679 C445.961700,401.633545 447.872437,386.295746 447.064056,370.430817 C446.133057,352.158875 438.347656,336.970856 425.589081,324.638947 C410.830658,310.374054 392.793884,303.951691 371.953400,304.871002 C355.411743,305.600739 341.046143,311.346008 328.801971,321.913422 C306.257996,341.370148 297.179779,372.537933 308.490784,402.122650 C319.783752,431.660065 346.089325,447.305298 372.931427,448.812134 C388.339783,449.677124 402.786285,444.995148 416.316254,435.856354 z"/>
  <path fill="#0D0D0D" opacity="1.000000" stroke="none" d=" M415.999054,436.023804 C402.786285,444.995148 388.339783,449.677124 372.931427,448.812134 C346.089325,447.305298 319.783752,431.660065 308.490784,402.122650 C297.179779,372.537933 306.257996,341.370148 328.801971,321.913422 C341.046143,311.346008 355.411743,305.600739 371.953400,304.871002 C392.793884,303.951691 410.830658,310.374054 425.589081,324.638947 C438.347656,336.970856 446.133057,352.158875 447.064056,370.430817 C447.872437,386.295746 445.961700,401.633545 436.419739,414.639679 C430.701904,422.433289 423.081512,428.831146 415.999054,436.023804 z"/>
</svg>